<svg xmlns="http://www.w3.org/2000/svg" width="40.674" height="43.169" viewBox="0 0 40.674 43.169">
  <g transform="translate(-16.688 -0.811)">
    <path fill="#24b96e" d="M43.259,9.41,23.928,18.742a.7.7,0,0,0-.4.632V42.336a.7.7,0,0,0,.4.632L43.259,52.3a1.4,1.4,0,0,0,1.22,0L63.81,42.968a.7.7,0,0,0,.4-.632V19.374a.7.7,0,0,0-.4-.632L44.479,9.41A1.4,1.4,0,0,0,43.259,9.41Z" transform="translate(-6.844 -8.459)"/>
    <path fill="#0e5d35" d="M23.649,120.368a.7.7,0,0,0-.117.384v22.963a.7.7,0,0,0,.4.632l19.331,9.332a1.4,1.4,0,0,0,.61.14V130.13Z" transform="translate(-6.844 -109.837)"/>
    <path fill="#0c8045" d="M276.22,120.368a.7.7,0,0,1,.117.384v22.963a.7.7,0,0,1-.4.632l-19.331,9.332a1.4,1.4,0,0,1-.61.14V130.13Z" transform="translate(-218.975 -109.837)"/>
    <path fill="#ffffff" d="M141.358,55.8,121.067,46l-5.349,2.593,20.337,9.818Z" transform="translate(-90.965 -41.975)"/>
    <path fill="#ffffff" d="M348.185,160.66v7.606a.351.351,0,0,0,.5.316l4.4-2.126a.7.7,0,0,0,.4-.632v-7.772Z" transform="translate(-303.095 -144.225)"/>
    <path fill="#ffffff" d="M51.974,342.769l-2.984-1.441a.656.656,0,0,0-.571,1.182L51.4,343.95a.656.656,0,0,0,.571-1.182Z" transform="translate(-29.215 -311.407)"/>
    <path fill="#ffffff" d="M54.764,308.521l-5.727-2.765a.656.656,0,0,0-.57,1.182l5.727,2.765a.656.656,0,0,0,.57-1.182Z" transform="translate(-29.259 -278.947)"/>
  </g>
</svg>

