<svg xmlns="http://www.w3.org/2000/svg"
  xmlns:xlink="http://www.w3.org/1999/xlink" width="32" height="32" viewBox="0 0 32 32">
  <defs>
    <linearGradient id="a" x1="0.5" x2="0.5" y2="1" gradientUnits="objectBoundingBox">
      <stop offset="0" stop-color="#2ffd96"/>
      <stop offset="1" stop-color="#24b96e"/>
    </linearGradient>
  </defs>
  <g transform="translate(2.663 5.349)">
    <path fill="#313131" d="M13.011,10.651h0L0,.26A1,1,0,0,1,.672,0H25.348a1,1,0,0,1,.673.262L13.012,10.65Z" transform="translate(0.327 0)"/>
    <path fill="#1d1d1d" d="M12.4,19.842h0L0,9.922,12.4,0a1,1,0,0,1,.035.226V19.61a.994.994,0,0,1-.037.231Z" transform="translate(14.235 0.733)"/>
    <path fill="#1d1d1d" d="M.033,19.81h0A1,1,0,0,1,0,19.555V.253A1,1,0,0,1,.033,0L12.416,9.905.034,19.81Z" transform="translate(0 0.747)"/>
    <rect fill="url(#a)" width="26.674" height="21.302" rx="1" transform="translate(0)"/>
    <path fill="#24b96e" d="M13.011,10.651h0L0,.26A1,1,0,0,1,.672,0H25.348a1,1,0,0,1,.673.262L13.012,10.65Z" transform="translate(0.327 0)"/>
    <path fill="#24b96e" d="M12.4,19.842h0L0,9.922,12.4,0a1,1,0,0,1,.035.226V19.61a.994.994,0,0,1-.037.231Z" transform="translate(14.235 0.733)"/>
    <path fill="#24b96e" d="M.033,19.81h0A1,1,0,0,1,0,19.555V.253A1,1,0,0,1,.033,0L12.416,9.905.034,19.81Z" transform="translate(0 0.747)"/>
  </g>
  <rect fill="none" width="32" height="32"/>
</svg>